<svg xmlns="http://www.w3.org/2000/svg" width="30" height="30" fill="black"><g clip-path="url(#a)"><path fill="#fff" d="M8.7 0h12.6C26.1 0 30 3.9 30 8.7v12.6a8.7 8.7 0 0 1-8.7 8.7H8.7C3.9 30 0 26.1 0 21.3V8.7A8.7 8.7 0 0 1 8.7 0Zm-.3 3A5.4 5.4 0 0 0 3 8.4v13.2C3 24.585 5.415 27 8.4 27h13.2a5.4 5.4 0 0 0 5.4-5.4V8.4C27 5.415 24.585 3 21.6 3H8.4Zm14.475 2.25a1.875 1.875 0 1 1 0 3.75 1.875 1.875 0 0 1 0-3.75ZM15 7.5a7.5 7.5 0 1 1 0 15 7.5 7.5 0 0 1 0-15Zm0 3a4.5 4.5 0 1 0 0 9 4.5 4.5 0 0 0 0-9Z"/></g><defs><clipPath id="a"><path fill="#fff" d="M0 0h30v30H0z"/></clipPath></defs></svg>