<svg xmlns="http://www.w3.org/2000/svg" width="34" height="30" fill="black"><g clip-path="url(#a)"><path fill="#fff" d="M33.166 3.53a12 12 0 0 1-3.802 1.217c1.36-.935 2.41-2.418 2.905-4.2A12.411 12.411 0 0 1 28.066 2.4C26.845.882 25.129 0 23.182 0c-3.632 0-6.6 3.388-6.6 7.57 0 .6.063 1.183.17 1.73-5.5-.318-10.4-3.335-13.66-7.906a8.317 8.317 0 0 0-.897 3.794c0 2.63 1.159 4.96 2.952 6.283-1.098 0-2.118-.353-3.014-.883v.053c0 3.67 2.287 6.741 5.316 7.43a5.737 5.737 0 0 1-2.982.123c.42 1.505 1.241 2.82 2.35 3.764s2.449 1.466 3.831 1.495C8.305 25.57 5.4 26.716 2.411 26.7c-.525 0-1.05-.035-1.576-.106C3.77 28.747 7.264 30 11.004 30c12.178 0 18.87-11.541 18.87-21.547 0-.335 0-.653-.016-.988 1.299-1.06 2.411-2.4 3.308-3.936Z"/></g><defs><clipPath id="a"><path fill="#fff" d="M0 0h34v30H0z"/></clipPath></defs></svg>