<svg xmlns="http://www.w3.org/2000/svg" width="50" height="30" fill="black"><g clip-path="url(#a)"><path fill="#fff" d="M20 21.429 32.975 15 20 8.571V21.43ZM48.9 4.65c.325 1.007.55 2.357.7 4.071.175 1.715.25 3.193.25 4.479L50 15c0 4.693-.4 8.143-1.1 10.35-.625 1.929-2.075 3.171-4.325 3.707-1.175.279-3.325.472-6.625.6-3.25.15-6.225.214-8.975.214L25 30c-10.475 0-17-.343-19.575-.943-2.25-.536-3.7-1.778-4.325-3.707-.325-1.007-.55-2.357-.7-4.071A44.253 44.253 0 0 1 .15 16.8L0 15c0-4.693.4-8.143 1.1-10.35.625-1.929 2.075-3.171 4.325-3.707C6.6.664 8.75.47 12.05.343c3.25-.15 6.225-.214 8.975-.214L25 0c10.475 0 17 .343 19.575.943 2.25.536 3.7 1.778 4.325 3.707Z"/></g><defs><clipPath id="a"><path fill="#fff" d="M0 0h50v30H0z"/></clipPath></defs></svg>