<svg aria-hidden="true" style="position: absolute; width: 0; height: 0; overflow: hidden;" version="1.1" xmlns="http://www.w3.org/2000/svg" xmlns:xlink="http://www.w3.org/1999/xlink">
<defs>
<symbol id="icon-switcher-eng" viewBox="0 0 58 32">
<path fill="none" stroke="#fff" style="stroke: var(--color1, #fff)" stroke-linejoin="miter" stroke-linecap="butt" stroke-miterlimit="4" stroke-width="1.6" d="M16.001 0.799h25.602c8.395 0 15.201 6.806 15.201 15.201s-6.806 15.201-15.201 15.201h-25.602c-8.395 0-15.201-6.806-15.201-15.201s6.806-15.201 15.201-15.201z"></path>
<path fill="#fff" style="fill: var(--color1, #fff)" d="M25.602 16c0 5.302-4.298 9.601-9.601 9.601s-9.601-4.298-9.601-9.601c0-5.302 4.298-9.601 9.601-9.601s9.601 4.298 9.601 9.601z"></path>
</symbol>
<symbol id="icon-inst-1" viewBox="0 0 32 32">
<path fill="#fff" style="fill: var(--color1, #fff)" d="M9.28 0h13.44c5.12 0 9.28 4.16 9.28 9.28v13.44c0 5.125-4.155 9.28-9.28 9.28h-13.44c-5.12 0-9.28-4.16-9.28-9.28v-13.44c0-5.125 4.155-9.28 9.28-9.28v0zM8.96 3.2c-3.181 0-5.76 2.579-5.76 5.76v0 14.080c0 3.184 2.576 5.76 5.76 5.76h14.080c3.181 0 5.76-2.579 5.76-5.76v0-14.080c0-3.184-2.576-5.76-5.76-5.76h-14.080zM24.4 5.6c1.105 0 2 0.895 2 2s-0.895 2-2 2v0c-1.105 0-2-0.895-2-2s0.895-2 2-2v0zM16 8c4.418 0 8 3.582 8 8s-3.582 8-8 8v0c-4.418 0-8-3.582-8-8s3.582-8 8-8v0zM16 11.2c-2.651 0-4.8 2.149-4.8 4.8s2.149 4.8 4.8 4.8v0c2.651 0 4.8-2.149 4.8-4.8s-2.149-4.8-4.8-4.8v0z"></path>
</symbol>
<symbol id="icon-switcher-ua" viewBox="0 0 58 32">
<path fill="#000" style="fill: var(--color2, #000); stroke: var(--color1, #fff)" stroke="#fff" stroke-linejoin="miter" stroke-linecap="butt" stroke-miterlimit="4" stroke-width="1.6" d="M16 0.8h25.6c8.395 0 15.2 6.805 15.2 15.2s-6.805 15.2-15.2 15.2h-25.6c-8.395 0-15.2-6.805-15.2-15.2s6.805-15.2 15.2-15.2z"></path>
<path fill="#fff" style="fill: var(--color1, #fff)" d="M51.2 16c0 5.302-4.298 9.6-9.6 9.6s-9.6-4.298-9.6-9.6c0-5.302 4.298-9.6 9.6-9.6s9.6 4.298 9.6 9.6z"></path>
</symbol>
<symbol id="icon-twitter-1" viewBox="0 0 36 32">
<path fill="#fff" style="fill: var(--color1, #fff)" d="M35.377 3.765c-1.175 0.621-2.541 1.076-3.986 1.29l-0.070 0.008c1.451-0.997 2.571-2.579 3.099-4.48-1.28 0.889-2.779 1.571-4.393 1.958l-0.090 0.018c-1.302-1.619-3.133-2.56-5.21-2.56-3.874 0-7.040 3.614-7.040 8.075 0 0.64 0.067 1.262 0.181 1.845-5.867-0.339-11.093-3.557-14.571-8.433-0.603 1.166-0.957 2.546-0.957 4.008 0 0.014 0 0.028 0 0.041v-0.002c0 2.805 1.236 5.291 3.149 6.702-1.171 0-2.259-0.377-3.215-0.942v0.057c0 3.915 2.439 7.19 5.67 7.925-0.548 0.178-1.179 0.281-1.834 0.281-0.477 0-0.942-0.055-1.388-0.158l0.041 0.008c0.448 1.605 1.324 3.008 2.507 4.015s2.612 1.564 4.086 1.595c-2.499 2.258-5.598 3.481-8.786 3.463-0.56 0-1.12-0.037-1.681-0.113 3.131 2.297 6.858 3.633 10.847 3.633 12.99 0 20.128-12.31 20.128-22.983 0-0.357 0-0.697-0.017-1.054 1.386-1.131 2.572-2.56 3.529-4.198z"></path>
</symbol>
<symbol id="icon-youtube-1" viewBox="0 0 53 32">
<path fill="#fff" style="fill: var(--color1, #fff)" d="M21.333 22.858l13.84-6.858-13.84-6.858v13.716zM52.16 4.96c0.347 1.074 0.587 2.514 0.747 4.342 0.187 1.829 0.267 3.406 0.267 4.778l0.16 1.92c0 5.006-0.427 8.686-1.173 11.040-0.667 2.058-2.213 3.382-4.613 3.954-1.253 0.298-3.547 0.503-7.067 0.64-3.467 0.16-6.64 0.228-9.573 0.228l-4.24 0.138c-11.173 0-18.133-0.366-20.88-1.006-2.4-0.572-3.947-1.897-4.613-3.954-0.347-1.074-0.587-2.514-0.747-4.342-0.161-1.423-0.258-3.084-0.267-4.765l-0-0.013-0.16-1.92c0-5.006 0.427-8.686 1.173-11.040 0.667-2.058 2.213-3.382 4.613-3.954 1.253-0.298 3.547-0.505 7.067-0.64 3.467-0.16 6.64-0.228 9.573-0.228l4.24-0.138c11.173 0 18.133 0.366 20.88 1.006 2.4 0.572 3.947 1.897 4.613 3.954z"></path>
</symbol>
</defs>
</svg>
